<svg width="19" height="14" viewBox="0 0 19 14" fill="none" xmlns="http://www.w3.org/2000/svg">
<g id="icon">
<path id="Line 5" d="M18.4243 8.57574C18.6586 8.81005 18.6586 9.18995 18.4243 9.42426L14.6059 13.2426C14.3716 13.477 13.9917 13.477 13.7574 13.2426C13.523 13.0083 13.523 12.6284 13.7574 12.3941L17.1515 9L13.7574 5.60589C13.523 5.37157 13.523 4.99167 13.7574 4.75736C13.9917 4.52304 14.3716 4.52304 14.6059 4.75736L18.4243 8.57574ZM10 9.6C9.66863 9.6 9.4 9.33137 9.4 9C9.4 8.66863 9.66863 8.4 10 8.4V9.6ZM18 9.6H10V8.4H18V9.6Z" fill="#868B93"/>
<path id="Line 4" d="M0.575736 4.57574C0.341421 4.81005 0.341421 5.18995 0.575736 5.42426L4.39411 9.24264C4.62843 9.47696 5.00833 9.47696 5.24264 9.24264C5.47696 9.00833 5.47696 8.62843 5.24264 8.39411L1.84853 5L5.24264 1.60589C5.47696 1.37157 5.47696 0.991674 5.24264 0.757359C5.00833 0.523045 4.62843 0.523045 4.39411 0.757359L0.575736 4.57574ZM9 5.6C9.33137 5.6 9.6 5.33137 9.6 5C9.6 4.66863 9.33137 4.4 9 4.4V5.6ZM1 5.6H9V4.4H1V5.6Z" fill="#868B93"/>
</g>
</svg>
